<svg width="410" height="410" viewBox="0 0 410 410" fill="none" xmlns="http://www.w3.org/2000/svg">
<path d="M332.986 102.245C332.986 129.776 367.76 144.154 369.241 144.753C370.759 145.343 372.274 145.337 373.789 144.735C375.253 144.129 409.628 129.589 409.998 102.327C410.171 89.5217 400.298 77.4147 387.022 77.4147C381.149 77.4147 375.647 79.8195 371.492 83.9331C367.337 79.8195 361.834 77.4147 355.963 77.4147C343.294 77.4147 332.986 88.5536 332.986 102.245V102.245ZM365.913 96.8681C367.882 101.813 375.104 101.813 377.073 96.8681C378.874 92.3469 382.778 89.4265 387.022 89.4265C393.664 89.4265 398.072 96.0113 397.987 102.164C397.77 118.226 378.259 129.232 371.482 132.572C364.697 129.252 344.999 118.229 344.999 102.246C344.999 95.1777 349.918 89.4273 355.963 89.4273C360.207 89.4265 364.112 92.3477 365.913 96.8681Z" fill="#BF2F2F"/>
<path d="M331.448 47.0419C332.966 47.6321 334.482 47.6257 335.997 47.0235C336.982 46.6159 360.122 36.8239 360.376 18.0616C360.501 8.78937 353.169 0 343.577 0C339.944 0 336.509 1.24281 333.7 3.42494C330.889 1.24281 327.454 0 323.822 0C314.559 0 307.023 8.06547 307.023 17.9791C307.023 36.9472 330.45 46.6383 331.448 47.0419V47.0419ZM323.822 12.0117C325.621 12.0117 327.308 13.329 328.12 15.3678C330.089 20.3126 337.311 20.3126 339.28 15.3678C340.092 13.329 341.779 12.0117 343.578 12.0117C346.689 12.5394 348.285 14.5013 348.365 17.8983C348.261 25.6586 339.204 31.9792 333.715 34.83C329.109 32.4429 319.034 26.2712 319.034 17.9799C319.034 14.7448 321.227 12.0117 323.822 12.0117V12.0117Z" fill="#BF2F2F"/>
<path d="M313.431 192.376C314.949 192.967 316.465 192.96 317.98 192.358C318.965 191.95 342.104 182.158 342.359 163.395C342.484 154.124 335.152 145.335 325.559 145.335C321.927 145.335 318.492 146.577 315.682 148.76C312.872 146.577 309.437 145.335 305.806 145.335C296.542 145.335 289.006 153.4 289.006 163.314C289.006 182.281 312.434 191.973 313.431 192.376V192.376ZM305.806 157.346C307.604 157.346 309.291 158.664 310.103 160.702C312.072 165.647 319.294 165.647 321.263 160.702C322.075 158.664 323.762 157.346 325.561 157.346C328.673 157.874 330.269 159.836 330.349 163.233C330.244 170.993 321.187 177.314 315.698 180.165C311.092 177.778 301.018 171.607 301.018 163.315C301.018 160.079 303.211 157.346 305.806 157.346Z" fill="#BF2F2F"/>
<path d="M312.33 212.438C291.18 212.438 271.581 219.274 255.573 230.873L269.594 120.86C280.225 120.17 288.666 111.305 288.666 100.502C288.666 92.6448 284.198 85.815 277.673 82.4068C281.312 76.0927 283.101 68.9017 282.777 61.4776C281.879 40.8447 264.795 24.5808 244.057 23.949C242.869 10.057 230.644 -0.58134 216.344 0.0248516C205.67 0.482098 196.691 7.09735 192.834 16.2175C188.761 14.157 184.168 13.124 179.49 13.3258C168.083 13.8143 158.573 21.3168 155.246 31.5012C150.826 30.5731 146.041 30.4009 141.556 30.9863C137.574 20.6786 127.156 13.6005 115.493 14.1114C109.185 14.3813 103.347 16.7668 98.794 20.8235C91.8176 16.3344 83.592 14.0986 75.1189 14.4621C64.4485 14.9186 54.5861 19.4118 47.3486 27.1121C41.0432 33.821 37.3829 42.2621 36.8159 51.234C35.0366 50.9529 33.218 50.8488 31.3922 50.9273C24.3013 51.2308 17.7437 54.2193 12.9294 59.3419C8.07668 64.5046 5.57264 71.2111 5.87773 78.2252C5.97943 80.5722 6.39264 82.8545 7.10453 85.0494C2.75869 88.7947 0 94.3321 0 100.504C0 111.307 8.44023 120.171 19.0714 120.861L47.0563 340.445C48.5249 351.973 58.4506 360.666 70.1428 360.666H139.73V384.852C139.73 392.302 145.792 398.364 153.242 398.364H266.381C280.084 405.785 295.729 410 312.33 410C321.223 410 330.049 408.785 338.563 406.389C345.798 404.353 342.874 392.7 335.31 394.827C327.854 396.925 320.124 397.988 312.33 397.988C265.097 397.988 226.671 359.064 226.671 311.219C226.671 263.374 265.097 224.449 312.33 224.449C359.562 224.449 397.988 263.374 397.988 311.219C397.988 339.333 384.442 365.829 361.753 382.095C355.645 386.474 362.366 396.435 368.752 391.857C394.58 373.34 410 343.196 410 311.219C410 256.751 366.185 212.438 312.33 212.438V212.438ZM20.4047 108.897C15.777 108.897 12.0117 105.131 12.0117 100.503C12.0117 95.8752 15.777 92.1099 20.4047 92.1099H68.0608C71.3776 92.1099 74.0667 89.4209 74.0667 86.104C74.0667 82.7872 71.3776 80.0982 68.0608 80.0982C68.0608 80.0982 18.9473 80.139 18.2338 80.2151C15.3958 67.9295 29.7891 58.7646 40.2457 65.0227C44.6107 67.6348 50.1842 63.7398 49.2288 58.7421C47.6401 50.4172 50.3011 41.5077 56.0995 35.3393C61.1765 29.9372 68.1129 26.7854 75.6314 26.4634C83.0226 26.1439 90.1263 28.6232 95.6269 33.4367C98.9037 35.7173 101.862 35.3601 104.5 32.3636C107.145 28.5911 111.338 26.3121 116.005 26.1127C123.685 25.7708 130.346 31.3114 131.176 38.6954C131.567 42.1708 135.213 44.835 138.814 43.794C144.996 42.005 151.736 42.3317 157.712 44.7725C161.566 46.3484 165.929 43.4608 165.988 39.2984C166.096 31.795 172.251 25.6579 180.002 25.3263C184.695 25.1269 189.245 27.1545 192.164 30.754C195.725 35.1439 203.05 32.3844 202.83 26.7365C202.527 18.9689 208.82 12.3697 216.856 12.0254C224.945 11.6778 231.785 17.7485 232.125 25.5546C232.174 26.6837 232.07 27.8248 231.807 29.0444C230.938 33.0755 234.467 36.8512 238.548 36.2522C239.551 36.1049 240.558 36.0096 241.54 35.9679C257.005 35.3009 270.122 46.9827 270.776 61.9997C271.064 68.6094 268.917 74.962 264.713 80.0974H100.063C96.7464 80.0974 94.0574 82.7864 94.0574 86.1032C94.0574 89.4201 96.7464 92.1091 100.063 92.1091H268.26C272.888 92.1091 276.653 95.8752 276.653 100.504C276.653 105.131 272.888 108.897 268.26 108.897H20.4047V108.897ZM196.718 120.909L192.019 170.069C186.753 167.345 180.961 165.894 175.004 165.894C162.916 165.894 151.72 171.9 144.33 181.826C136.941 171.9 125.745 165.894 113.657 165.894C107.571 165.894 101.804 167.407 96.6495 170.104L91.9473 120.909H196.718ZM70.1428 348.655C64.4813 348.655 59.679 344.472 58.9719 338.927L31.1864 120.909H79.8811L85.4241 178.9C78.4461 186.693 74.1331 197.345 74.1331 209.083C74.1331 226.805 82.1714 241.621 92.7185 253.441C92.6552 253.897 92.6376 254.364 92.6832 254.842L101.65 348.655H70.1428ZM174.775 386.352H153.242C152.415 386.352 151.742 385.679 151.742 384.852V346.565C151.742 345.737 152.415 345.064 153.242 345.064H174.775V386.352ZM176.441 333.052H153.242C145.792 333.052 139.73 339.114 139.73 346.565V348.655H113.716L105.799 265.836C122.833 279.675 140.656 287.038 142.079 287.613C143.596 288.203 145.112 288.196 146.627 287.594C148.042 287.009 165.87 279.478 182.902 265.461L176.441 333.052ZM144.301 275.477C133.28 270.457 86.144 246.772 86.144 209.082C86.144 191.891 98.4865 177.906 113.657 177.906C124.452 177.906 134.302 185.124 138.751 196.294C140.72 201.239 147.941 201.239 149.91 196.294C154.359 185.123 164.209 177.906 175.004 177.906C191.299 177.906 202.726 193.676 202.518 209.002C202.011 246.37 155.243 270.372 144.301 275.477V275.477ZM209.819 386.352H186.786V345.064H209.819V386.352ZM248.996 386.352H221.831V348.358C227.782 363.138 237.173 376.144 248.996 386.352ZM241.978 242.537C241.967 242.622 241.966 242.706 241.958 242.79C225.063 260.556 214.658 284.68 214.658 311.218C214.658 318.719 215.493 326.025 217.067 333.051H188.506L196.188 252.689C206.46 240.984 214.294 226.431 214.528 209.163C214.681 197.835 210.587 186.862 203.254 178.765L208.785 120.908H257.479L241.978 242.537Z" fill="#BF2F2F"/>
<path d="M342.503 311.219C342.503 294.419 328.967 280.752 312.329 280.752C295.69 280.752 282.154 294.419 282.154 311.219C282.154 328.018 295.69 341.685 312.329 341.685C328.967 341.685 342.503 328.018 342.503 311.219ZM312.33 329.674C302.315 329.674 294.167 321.395 294.167 311.219C294.167 301.043 302.314 292.764 312.33 292.764C322.345 292.764 330.492 301.043 330.492 311.219C330.492 321.395 322.344 329.674 312.33 329.674Z" fill="#BF2F2F"/>
<path d="M330.435 252.64C330.435 242.507 322.258 234.262 312.205 234.262C302.153 234.262 293.976 242.506 293.976 252.64C293.976 262.774 302.153 271.018 312.205 271.018C322.258 271.018 330.435 262.774 330.435 252.64ZM305.987 252.64C305.987 249.13 308.776 246.274 312.205 246.274C315.634 246.274 318.423 249.129 318.423 252.64C318.423 256.151 315.634 259.006 312.205 259.006C308.777 259.006 305.987 256.151 305.987 252.64Z" fill="#BF2F2F"/>
<path d="M353.168 251.331C348.315 251.331 343.663 253.297 340.251 256.739C333.186 263.89 333.186 275.526 340.251 282.678C347.22 289.731 359.098 289.747 366.084 282.678C373.149 275.527 373.149 263.891 366.084 256.739C362.637 253.252 358.05 251.331 353.168 251.331ZM357.539 274.236C354.625 276.688 351.71 276.688 348.796 274.236C346.33 271.74 346.33 267.678 348.796 265.181C351.71 262.729 354.624 262.729 357.538 265.181C360.005 267.678 360.005 271.74 357.539 274.236V274.236Z" fill="#BF2F2F"/>
<path d="M351.977 311.094C351.977 321.227 360.155 329.472 370.207 329.472C380.258 329.472 388.437 321.228 388.437 311.094C388.437 300.96 380.259 292.716 370.207 292.716C360.155 292.716 351.977 300.96 351.977 311.094ZM370.207 304.728C373.635 304.728 376.425 307.583 376.425 311.094C376.425 314.605 373.636 317.46 370.207 317.46C366.778 317.46 363.989 314.605 363.989 311.094C363.989 307.583 366.778 304.728 370.207 304.728Z" fill="#BF2F2F"/>
<path d="M366.258 339.582C359.29 332.529 347.412 332.511 340.427 339.582C333.36 346.733 333.36 358.37 340.427 365.521C347.489 372.67 359.195 372.669 366.258 365.521C373.324 358.37 373.324 346.733 366.258 339.582ZM357.714 357.079C354.8 359.531 351.885 359.531 348.971 357.079C346.504 354.583 346.504 350.521 348.971 348.024C351.885 345.572 354.799 345.572 357.713 348.024C360.18 350.521 360.18 354.583 357.714 357.079V357.079Z" fill="#BF2F2F"/>
<path d="M294.223 369.798C294.223 379.931 302.401 388.176 312.453 388.176C322.505 388.176 330.683 379.931 330.683 369.798C330.683 359.664 322.505 351.42 312.453 351.42C302.401 351.42 294.223 359.664 294.223 369.798ZM318.671 369.798C318.671 373.307 315.882 376.164 312.453 376.164C309.024 376.164 306.235 373.308 306.235 369.798C306.235 366.287 309.024 363.431 312.453 363.431C315.882 363.431 318.671 366.287 318.671 369.798Z" fill="#BF2F2F"/>
<path d="M271.491 371.107C276.374 371.107 280.961 369.186 284.406 365.698C291.472 358.547 291.472 346.91 284.406 339.759C280.961 336.271 276.374 334.351 271.491 334.351C266.639 334.362 261.986 336.307 258.575 339.759C251.509 346.91 251.509 358.547 258.575 365.698C262.021 369.186 266.608 371.107 271.491 371.107V371.107ZM267.12 348.201C270.034 345.749 272.949 345.749 275.863 348.201C278.329 350.697 278.329 354.759 275.863 357.256C273.637 359.481 269.301 359.464 267.121 357.256C264.653 354.76 264.653 350.697 267.12 348.201V348.201Z" fill="#BF2F2F"/>
<path d="M236.222 311.344C236.222 321.477 244.4 329.722 254.452 329.722C264.504 329.722 272.682 321.478 272.682 311.344C272.682 301.21 264.504 292.966 254.452 292.966C244.4 292.967 236.222 301.211 236.222 311.344ZM254.451 304.978C257.88 304.978 260.67 307.834 260.67 311.345C260.67 314.855 257.88 317.711 254.451 317.711C251.023 317.711 248.233 314.855 248.233 311.345C248.233 307.834 251.023 304.978 254.451 304.978Z" fill="#BF2F2F"/>
<path d="M271.317 288.264C276.2 288.264 280.787 286.343 284.232 282.856C291.298 275.704 291.298 264.068 284.232 256.916C280.786 253.429 276.199 251.509 271.317 251.509C266.466 251.519 261.811 253.465 258.401 256.916C251.335 264.068 251.335 275.704 258.401 282.856C261.847 286.343 266.434 288.264 271.317 288.264V288.264ZM266.944 265.359C269.858 262.907 272.773 262.907 275.687 265.359C278.154 267.855 278.154 271.916 275.687 274.413C272.773 276.865 269.859 276.865 266.945 274.413C264.478 271.916 264.478 267.855 266.944 265.359V265.359Z" fill="#BF2F2F"/>
</svg>
